# xmcd
#
# Track frame offsets:
# 150
# 24668
# 46278
# 66801
# 94083
# 109781
# 129273
# 140441
# 160098
#
# Disc length: 2340 seconds
#
#
# Revision: 0
# Processed by: cddbd v1.5.2PL0 Copyright (c) Steve Scherf et al.
# Submitted via: FreeRIP 2.943 
#
DISCID=71092209
DTITLE=with a bullet - this is the sound it makes
DYEAR=2006
DGENRE=Noise
TTITLE0=till the day i'm dead
TTITLE1=am i your pulse
TTITLE2=a cruel instrument
TTITLE3=your eyes have changed
TTITLE4=conversation piece
TTITLE5=where we belong
TTITLE6=tastes like burning
TTITLE7=give it a name
TTITLE8=this vaccine
EXTD=zz
EXTT0=
EXTT1=
EXTT2=
EXTT3=
EXTT4=
EXTT5=
EXTT6=
EXTT7=
EXTT8=
PLAYORDER=
